********************************************************************************************************************                               
016	                     Karate Kid 2010 SUBBED CAM READNFO XViD - IMAGiNE
017	********************************************************************************************************************
018	 
019	Ripper ...........: IMAGiNE                                        IMDB Rating.......:5.7/10                            
020	Video Codec.......: XVID                                         Release Date......:28/06/10
021	Audio Codec.......:MP3                                           Theatre Date......:11/06/10
022	Audio Bitrate.....:128                                              Runtime.......:2h 12mn
023	Subtitles.........:NIL                                                 Language..........:ENGLISH
024	Resolution...... 720 x 304                                      IMDb URL..........:http://www.imdb.com/title/tt1155076/
025	 
026	 
027	[color=yellow]DETAILS:[/color]
028	 
029	Video
030	ID                               : 0
031	Format                           : MPEG-4 Visual
032	Format profile                   : Advanced Simple@L5
033	Format settings, BVOP            : Yes
034	Format settings, QPel            : No
035	Format settings, GMC             : No warppoints
036	Format settings, Matrix          : Default (MPEG)
037	Muxing mode                      : Packed bitstream
038	Codec ID                         : XVID
039	Codec ID/Hint                    : XviD
040	Duration                         : 2h 12mn
041	Bit rate                         : 1 554 Kbps
042	Width                            : 720 pixels
043	Height                           : 304 pixels
044	Display aspect ratio             : 2.35
045	Frame rate                       : 23.976 fps
046	Resolution                       : 24 bits
047	Colorimetry                      : 4:2:0
048	Scan type                        : Progressive
049	Bits/(Pixel*Frame)               : 0.296
050	Stream size                      : 1.44 GiB (92%)
051	Writing library                  : XviD 1.2.1 (UTC 2008-12-04)
052	 
053	Audio
054	ID                               : 1
055	Format                           : MPEG Audio
056	Format version                   : Version 1
057	Format profile                   : Layer 3
058	Codec ID                         : 55
059	Codec ID/Hint                    : MP3
060	Duration                         : 2h 12mn
061	Bit rate mode                    : Constant
062	Bit rate                         : 128 Kbps
063	Channel(s)                       : 2 channels
064	Sampling rate                    : 44.1 KHz
065	Resolution                       : 16 bits
066	Stream size                      : 121 MiB (8%)
067	Alignment                        : Split accross interleaves
068	Interleave, duration             : 42 ms (1.00 video frame)
069	Interleave, preload duration     : 500 ms
070	 
071	 
072	[color=yellow]NOTES:[/color]
073	 
074	IMAGiNE bringing you another release.....Karate Kid 2010 SUBBED CAM
075	 
076	First off sources used are the spanish dvdr by anton studios and some homemade stuff .....Thanks to all for the sources :)
077	Right the dvdr we were given contain a english audio track which was cam but pretty decent .....the video was good but had
078	hardcoded spanish subs all the way through and also english when needed.
079	Theres also antons normal "A" in the top right corner hardcoded and theres also a corner of a chair in the bottom left.
080	The colours were ok in parts but there was some major green added to it :P
081	The other source we used.....was to fill in the missing blanks.At around 6mins 20secs there is 32 seconds of missing footage so
082	we've added that with audio for it.
083	Work done....well the audio on all has been left how they were so ....
084	The videos.....well the missing part has been filtered and resized to match the main bulk of our encode.The anton dvdr we basically just
085	ripped and ran a few filteres over it,changing the rgb colours,chroma,brightness,contrast,hue,sat also used a smoother and finally there seemed
086	to be some interlace issues that wasn't going away even after we fixed the ivtc,so for this we had to blend the field and normal de-interlace aswell.
087	Once done it was just a case of fitting the missing scene into our encode.
088	 
089	Anyway enjoy,yet another remake :)
090	 
091	 
092	[color=yellow]SCREENS:[/color]
093	 
094	[IMG]http://imagine.takagari.com/Karate%20Kid%202010%20CAM/vlcsnap-356727.png[/img]
095	[IMG]http://imagine.takagari.com/Karate%20Kid%202010%20CAM/vlcsnap-357366.png[/img]
096	[IMG]http://imagine.takagari.com/Karate%20Kid%202010%20CAM/vlcsnap-357704.png[/img]
097	[IMG]http://imagine.takagari.com/Karate%20Kid%202010%20CAM/vlcsnap-360212.png[/img]
098	[IMG]http://imagine.takagari.com/Karate%20Kid%202010%20CAM/vlcsnap-360842.png[/img]
099	 
100	 
101	[color=yellow]GREETS:[/color]
102	 
103	FLAWL3SS,ViSiON,FUSiON,Rx,SecretMyth,BirdFlu,ELEKTRI4KA and Autotron
104	And to all the other p2p grps past and present
105	 
106	Special thanks to Python-Lair for the server :)
107	And special thanks to supreme-speeds.com for the ripbox :)
108	Also to The Scene Nation for all their help :)
109	 
110	[COLOR=RED]Looking for these,syncers,cammers,silver supplier.....Have anything to offer????......
111	Contact us imaginegroup@hushmail.com[/COLOR]